<mxfile host="app.diagrams.net" modified="2021-04-07T00:30:06.444Z" agent="5.0 (X11; Linux x86_64) AppleWebKit/537.36 (KHTML, like Gecko) Chrome/89.0.4389.72 Safari/537.36" etag="dk636IRictBIfiWjOUfq" version="14.5.7" type="github">
  <diagram id="w-KM_S5iVyPFLRbQDuqX" name="Page-1">
    <mxGraphModel dx="1422" dy="774" grid="1" gridSize="10" guides="1" tooltips="1" connect="1" arrows="1" fold="1" page="1" pageScale="1" pageWidth="827" pageHeight="583" math="0" shadow="0">
      <root>
        <mxCell id="0" />
        <mxCell id="1" parent="0" />
        <mxCell id="4LZHPSeo891_-1V4FMj4-1" value="main()" style="shape=process;whiteSpace=wrap;html=1;backgroundOutline=1;fontSize=16;align=center;" parent="1" vertex="1">
          <mxGeometry x="240" y="380" width="180" height="30" as="geometry" />
        </mxCell>
        <mxCell id="4LZHPSeo891_-1V4FMj4-2" value="server socket" style="edgeStyle=orthogonalEdgeStyle;rounded=0;orthogonalLoop=1;jettySize=auto;html=1;exitX=0.5;exitY=1;exitDx=0;exitDy=0;fontSize=16;" parent="1" source="4LZHPSeo891_-1V4FMj4-3" target="4LZHPSeo891_-1V4FMj4-5" edge="1">
          <mxGeometry relative="1" as="geometry" />
        </mxCell>
        <mxCell id="4LZHPSeo891_-1V4FMj4-3" value="create_socket()" style="rounded=1;whiteSpace=wrap;html=1;fontSize=16;align=center;" parent="1" vertex="1">
          <mxGeometry x="240" y="440" width="180" height="28" as="geometry" />
        </mxCell>
        <mxCell id="4LZHPSeo891_-1V4FMj4-4" style="edgeStyle=orthogonalEdgeStyle;rounded=0;orthogonalLoop=1;jettySize=auto;html=1;exitX=0.5;exitY=1;exitDx=0;exitDy=0;fontSize=16;" parent="1" source="4LZHPSeo891_-1V4FMj4-5" target="4LZHPSeo891_-1V4FMj4-11" edge="1">
          <mxGeometry relative="1" as="geometry" />
        </mxCell>
        <mxCell id="4LZHPSeo891_-1V4FMj4-5" value="bind_listen_socket()" style="rounded=1;whiteSpace=wrap;html=1;fontSize=16;align=center;" parent="1" vertex="1">
          <mxGeometry x="240" y="520" width="180" height="28" as="geometry" />
        </mxCell>
        <mxCell id="4LZHPSeo891_-1V4FMj4-6" value="create_tasks()" style="rounded=1;whiteSpace=wrap;html=1;fontSize=16;align=center;" parent="1" vertex="1">
          <mxGeometry x="240" y="680" width="180" height="28" as="geometry" />
        </mxCell>
        <mxCell id="4LZHPSeo891_-1V4FMj4-7" style="edgeStyle=orthogonalEdgeStyle;rounded=0;orthogonalLoop=1;jettySize=auto;html=1;exitX=0.5;exitY=1;exitDx=0;exitDy=0;entryX=0.5;entryY=0;entryDx=0;entryDy=0;fontSize=16;" parent="1" source="4LZHPSeo891_-1V4FMj4-11" target="4LZHPSeo891_-1V4FMj4-6" edge="1">
          <mxGeometry relative="1" as="geometry" />
        </mxCell>
        <mxCell id="4LZHPSeo891_-1V4FMj4-8" style="edgeStyle=orthogonalEdgeStyle;rounded=0;orthogonalLoop=1;jettySize=auto;html=1;exitX=1;exitY=0.5;exitDx=0;exitDy=0;entryX=0;entryY=0.5;entryDx=0;entryDy=0;fontSize=16;" parent="1" source="4LZHPSeo891_-1V4FMj4-11" target="4LZHPSeo891_-1V4FMj4-17" edge="1">
          <mxGeometry relative="1" as="geometry" />
        </mxCell>
        <mxCell id="4LZHPSeo891_-1V4FMj4-9" style="edgeStyle=orthogonalEdgeStyle;rounded=0;orthogonalLoop=1;jettySize=auto;html=1;exitX=1;exitY=0.5;exitDx=0;exitDy=0;fontSize=16;" parent="1" source="4LZHPSeo891_-1V4FMj4-11" target="4LZHPSeo891_-1V4FMj4-18" edge="1">
          <mxGeometry relative="1" as="geometry" />
        </mxCell>
        <mxCell id="4LZHPSeo891_-1V4FMj4-10" style="edgeStyle=orthogonalEdgeStyle;rounded=0;orthogonalLoop=1;jettySize=auto;html=1;exitX=1;exitY=0.5;exitDx=0;exitDy=0;entryX=0;entryY=0.5;entryDx=0;entryDy=0;fontSize=16;" parent="1" source="4LZHPSeo891_-1V4FMj4-11" target="4LZHPSeo891_-1V4FMj4-19" edge="1">
          <mxGeometry relative="1" as="geometry" />
        </mxCell>
        <mxCell id="4LZHPSeo891_-1V4FMj4-11" value="create_threads()" style="rounded=1;whiteSpace=wrap;html=1;fontSize=16;align=center;" parent="1" vertex="1">
          <mxGeometry x="240" y="580" width="180" height="28" as="geometry" />
        </mxCell>
        <mxCell id="4LZHPSeo891_-1V4FMj4-12" value="recv_msg()" style="rounded=1;whiteSpace=wrap;html=1;fontSize=16;align=center;" parent="1" vertex="1">
          <mxGeometry x="1080" y="227" width="140" height="30" as="geometry" />
        </mxCell>
        <mxCell id="4LZHPSeo891_-1V4FMj4-13" value="msg_format()" style="rounded=1;whiteSpace=wrap;html=1;fontSize=16;align=center;" parent="1" vertex="1">
          <mxGeometry x="1080" y="297" width="140" height="30" as="geometry" />
        </mxCell>
        <mxCell id="4LZHPSeo891_-1V4FMj4-14" value="&lt;ul&gt;&lt;li&gt;receive message from client&lt;/li&gt;&lt;/ul&gt;" style="text;html=1;strokeColor=none;fillColor=none;align=center;verticalAlign=middle;whiteSpace=wrap;rounded=0;fontSize=16;" parent="1" vertex="1">
          <mxGeometry x="1080" y="267" width="260" height="20" as="geometry" />
        </mxCell>
        <mxCell id="4LZHPSeo891_-1V4FMj4-15" value="&lt;ul&gt;&lt;li&gt;format message before sending&lt;/li&gt;&lt;/ul&gt;" style="text;html=1;strokeColor=none;fillColor=none;align=center;verticalAlign=middle;whiteSpace=wrap;rounded=0;fontSize=16;" parent="1" vertex="1">
          <mxGeometry x="1080" y="337" width="270" height="20" as="geometry" />
        </mxCell>
        <mxCell id="4LZHPSeo891_-1V4FMj4-16" value="thread target" style="edgeStyle=orthogonalEdgeStyle;rounded=0;orthogonalLoop=1;jettySize=auto;html=1;exitX=1;exitY=0.5;exitDx=0;exitDy=0;entryX=0;entryY=0.5;entryDx=0;entryDy=0;fontSize=16;" parent="1" source="4LZHPSeo891_-1V4FMj4-17" target="4LZHPSeo891_-1V4FMj4-20" edge="1">
          <mxGeometry relative="1" as="geometry" />
        </mxCell>
        <mxCell id="4LZHPSeo891_-1V4FMj4-17" value="Thread 1" style="rounded=1;whiteSpace=wrap;html=1;fontSize=16;align=center;" parent="1" vertex="1">
          <mxGeometry x="460" y="546" width="130" height="28" as="geometry" />
        </mxCell>
        <mxCell id="4LZHPSeo891_-1V4FMj4-18" value="Thread 2" style="rounded=1;whiteSpace=wrap;html=1;fontSize=16;align=center;" parent="1" vertex="1">
          <mxGeometry x="460" y="588" width="130" height="28" as="geometry" />
        </mxCell>
        <mxCell id="4LZHPSeo891_-1V4FMj4-19" value="Thread ..." style="rounded=1;whiteSpace=wrap;html=1;fontSize=16;align=center;" parent="1" vertex="1">
          <mxGeometry x="460" y="650" width="130" height="28" as="geometry" />
        </mxCell>
        <mxCell id="4LZHPSeo891_-1V4FMj4-20" value="scheduler()" style="shape=process;whiteSpace=wrap;html=1;backgroundOutline=1;fontSize=16;align=center;" parent="1" vertex="1">
          <mxGeometry x="720" y="410" width="290" height="30" as="geometry" />
        </mxCell>
        <mxCell id="4LZHPSeo891_-1V4FMj4-21" value="accept_client()" style="rounded=1;whiteSpace=wrap;html=1;fontSize=16;align=center;" parent="1" vertex="1">
          <mxGeometry x="760" y="450" width="250" height="28" as="geometry" />
        </mxCell>
        <mxCell id="4LZHPSeo891_-1V4FMj4-22" value="receive_all_incoming_messages()" style="rounded=1;whiteSpace=wrap;html=1;fontSize=16;align=center;" parent="1" vertex="1">
          <mxGeometry x="760" y="644" width="250" height="28" as="geometry" />
        </mxCell>
        <mxCell id="4LZHPSeo891_-1V4FMj4-23" value="remove_invalid_connections()" style="rounded=1;whiteSpace=wrap;html=1;fontSize=16;align=center;" parent="1" vertex="1">
          <mxGeometry x="760" y="546" width="250" height="28" as="geometry" />
        </mxCell>
        <mxCell id="4LZHPSeo891_-1V4FMj4-24" value="" style="edgeStyle=orthogonalEdgeStyle;rounded=0;orthogonalLoop=1;jettySize=auto;html=1;exitX=1;exitY=0.5;exitDx=0;exitDy=0;fontSize=16;" parent="1" source="4LZHPSeo891_-1V4FMj4-28" target="4LZHPSeo891_-1V4FMj4-36" edge="1">
          <mxGeometry relative="1" as="geometry" />
        </mxCell>
        <mxCell id="4LZHPSeo891_-1V4FMj4-25" style="edgeStyle=orthogonalEdgeStyle;rounded=0;orthogonalLoop=1;jettySize=auto;html=1;exitX=1;exitY=0.5;exitDx=0;exitDy=0;entryX=0;entryY=0.5;entryDx=0;entryDy=0;fontSize=16;" parent="1" source="4LZHPSeo891_-1V4FMj4-28" target="4LZHPSeo891_-1V4FMj4-38" edge="1">
          <mxGeometry relative="1" as="geometry" />
        </mxCell>
        <mxCell id="4LZHPSeo891_-1V4FMj4-26" style="edgeStyle=orthogonalEdgeStyle;rounded=0;orthogonalLoop=1;jettySize=auto;html=1;exitX=1;exitY=0.5;exitDx=0;exitDy=0;entryX=0;entryY=0.5;entryDx=0;entryDy=0;fontSize=16;" parent="1" source="4LZHPSeo891_-1V4FMj4-28" target="4LZHPSeo891_-1V4FMj4-39" edge="1">
          <mxGeometry relative="1" as="geometry" />
        </mxCell>
        <mxCell id="4LZHPSeo891_-1V4FMj4-27" style="edgeStyle=orthogonalEdgeStyle;rounded=0;orthogonalLoop=1;jettySize=auto;html=1;exitX=1;exitY=0.5;exitDx=0;exitDy=0;entryX=0;entryY=0.5;entryDx=0;entryDy=0;fontSize=16;" parent="1" source="4LZHPSeo891_-1V4FMj4-28" target="4LZHPSeo891_-1V4FMj4-37" edge="1">
          <mxGeometry relative="1" as="geometry" />
        </mxCell>
        <mxCell id="4LZHPSeo891_-1V4FMj4-28" value="work()" style="rounded=1;whiteSpace=wrap;html=1;fontSize=16;align=center;" parent="1" vertex="1">
          <mxGeometry x="760" y="708" width="250" height="28" as="geometry" />
        </mxCell>
        <mxCell id="4LZHPSeo891_-1V4FMj4-29" value="0" style="rounded=1;whiteSpace=wrap;html=1;fontSize=16;align=center;" parent="1" vertex="1">
          <mxGeometry x="720" y="450" width="30" height="28" as="geometry" />
        </mxCell>
        <mxCell id="4LZHPSeo891_-1V4FMj4-30" value="1" style="rounded=1;whiteSpace=wrap;html=1;fontSize=16;align=center;" parent="1" vertex="1">
          <mxGeometry x="720" y="544" width="30" height="28" as="geometry" />
        </mxCell>
        <mxCell id="4LZHPSeo891_-1V4FMj4-31" value="2" style="rounded=1;whiteSpace=wrap;html=1;fontSize=16;align=center;" parent="1" vertex="1">
          <mxGeometry x="720" y="644" width="30" height="28" as="geometry" />
        </mxCell>
        <mxCell id="4LZHPSeo891_-1V4FMj4-32" value="3" style="rounded=1;whiteSpace=wrap;html=1;fontSize=16;align=center;" parent="1" vertex="1">
          <mxGeometry x="720" y="708" width="30" height="28" as="geometry" />
        </mxCell>
        <mxCell id="4LZHPSeo891_-1V4FMj4-33" value="&lt;div style=&quot;text-align: left&quot;&gt;&lt;ul&gt;&lt;li&gt;&lt;span&gt;accept client&amp;nbsp;&lt;/span&gt;&lt;/li&gt;&lt;li&gt;&lt;span&gt;store connection information&lt;/span&gt;&lt;/li&gt;&lt;/ul&gt;&lt;/div&gt;" style="text;html=1;strokeColor=none;fillColor=none;align=center;verticalAlign=middle;whiteSpace=wrap;rounded=0;fontSize=16;" parent="1" vertex="1">
          <mxGeometry x="750" y="481.5" width="260" height="60" as="geometry" />
        </mxCell>
        <mxCell id="4LZHPSeo891_-1V4FMj4-34" value="&lt;div style=&quot;text-align: left&quot;&gt;&lt;ul&gt;&lt;li&gt;check for invalid connections for every specified interval&lt;/li&gt;&lt;li&gt;remove invalid connections&lt;/li&gt;&lt;/ul&gt;&lt;/div&gt;" style="text;html=1;strokeColor=none;fillColor=none;align=center;verticalAlign=middle;whiteSpace=wrap;rounded=0;fontSize=16;" parent="1" vertex="1">
          <mxGeometry x="750" y="576" width="260" height="68" as="geometry" />
        </mxCell>
        <mxCell id="4LZHPSeo891_-1V4FMj4-35" value="&lt;div style=&quot;text-align: left&quot;&gt;&lt;ul&gt;&lt;li&gt;receive all incoming messages&lt;/li&gt;&lt;/ul&gt;&lt;/div&gt;" style="text;html=1;strokeColor=none;fillColor=none;align=center;verticalAlign=middle;whiteSpace=wrap;rounded=0;fontSize=16;" parent="1" vertex="1">
          <mxGeometry x="740" y="672" width="270" height="38" as="geometry" />
        </mxCell>
        <mxCell id="4LZHPSeo891_-1V4FMj4-36" value="list_connected_client()" style="rounded=1;whiteSpace=wrap;html=1;fontSize=16;align=center;" parent="1" vertex="1">
          <mxGeometry x="1120" y="708" width="250" height="28" as="geometry" />
        </mxCell>
        <mxCell id="4LZHPSeo891_-1V4FMj4-37" value="close_all_connection()" style="rounded=1;whiteSpace=wrap;html=1;fontSize=16;align=center;" parent="1" vertex="1">
          <mxGeometry x="1120" y="792" width="250" height="28" as="geometry" />
        </mxCell>
        <mxCell id="4LZHPSeo891_-1V4FMj4-38" value="select_connection_and_send_message()" style="rounded=1;whiteSpace=wrap;html=1;fontSize=16;align=center;" parent="1" vertex="1">
          <mxGeometry x="1120" y="872" width="310" height="28" as="geometry" />
        </mxCell>
        <mxCell id="4LZHPSeo891_-1V4FMj4-39" value="broadcast()" style="rounded=1;whiteSpace=wrap;html=1;fontSize=16;align=center;" parent="1" vertex="1">
          <mxGeometry x="1120" y="960" width="250" height="28" as="geometry" />
        </mxCell>
        <mxCell id="-4okLFynyIRZ_ZhY0wed-2" value="&lt;div style=&quot;text-align: left&quot;&gt;&lt;ul&gt;&lt;li&gt;list all connected clients&lt;/li&gt;&lt;/ul&gt;&lt;/div&gt;" style="text;html=1;strokeColor=none;fillColor=none;align=center;verticalAlign=middle;whiteSpace=wrap;rounded=0;fontSize=16;" vertex="1" parent="1">
          <mxGeometry x="1120" y="736" width="220" height="34" as="geometry" />
        </mxCell>
        <mxCell id="-4okLFynyIRZ_ZhY0wed-3" value="&lt;div style=&quot;text-align: left&quot;&gt;&lt;ul&gt;&lt;li&gt;close all connections&lt;/li&gt;&lt;/ul&gt;&lt;/div&gt;" style="text;html=1;strokeColor=none;fillColor=none;align=center;verticalAlign=middle;whiteSpace=wrap;rounded=0;fontSize=16;" vertex="1" parent="1">
          <mxGeometry x="1120" y="820" width="190" height="34" as="geometry" />
        </mxCell>
        <mxCell id="-4okLFynyIRZ_ZhY0wed-4" value="&lt;div style=&quot;text-align: left&quot;&gt;&lt;ul&gt;&lt;li&gt;select specific client(connection) and send message to the client&lt;/li&gt;&lt;/ul&gt;&lt;/div&gt;" style="text;html=1;strokeColor=none;fillColor=none;align=center;verticalAlign=middle;whiteSpace=wrap;rounded=0;fontSize=16;" vertex="1" parent="1">
          <mxGeometry x="1120" y="910" width="310" height="40" as="geometry" />
        </mxCell>
        <mxCell id="-4okLFynyIRZ_ZhY0wed-6" value="&lt;div style=&quot;text-align: left&quot;&gt;&lt;ul&gt;&lt;li&gt;broadcast message to all clients connected&lt;/li&gt;&lt;/ul&gt;&lt;/div&gt;" style="text;html=1;strokeColor=none;fillColor=none;align=center;verticalAlign=middle;whiteSpace=wrap;rounded=0;fontSize=16;" vertex="1" parent="1">
          <mxGeometry x="1120" y="1000" width="250" height="34" as="geometry" />
        </mxCell>
      </root>
    </mxGraphModel>
  </diagram>
</mxfile>
